<?xml version="1.0" encoding="UTF-8" standalone="no"?>
<!-- Created with Inkscape (http://www.inkscape.org/) -->

<svg
   version="1.1"
   id="svg1"
   width="907"
   height="1059"
   viewBox="0 0 907 1059"
   sodipodi:docname="Clover5.svg"
   inkscape:version="1.4 (e7c3feb100, 2024-10-09)"
   xmlns:inkscape="http://www.inkscape.org/namespaces/inkscape"
   xmlns:sodipodi="http://sodipodi.sourceforge.net/DTD/sodipodi-0.dtd"
   xmlns="http://www.w3.org/2000/svg"
   xmlns:svg="http://www.w3.org/2000/svg">
  <defs
     id="defs1">
    <inkscape:path-effect
       effect="bspline"
       id="path-effect5"
       is_visible="true"
       lpeversion="1.3"
       weight="33.333333"
       steps="2"
       helper_size="0"
       apply_no_weight="true"
       apply_with_weight="true"
       only_selected="false"
       uniform="false" />
    <inkscape:path-effect
       effect="bspline"
       id="path-effect4"
       is_visible="true"
       lpeversion="1.3"
       weight="33.333333"
       steps="2"
       helper_size="0"
       apply_no_weight="true"
       apply_with_weight="true"
       only_selected="false"
       uniform="false" />
    <inkscape:path-effect
       effect="bspline"
       id="path-effect3"
       is_visible="true"
       lpeversion="1.3"
       weight="33.333333"
       steps="2"
       helper_size="0"
       apply_no_weight="true"
       apply_with_weight="true"
       only_selected="false"
       uniform="false" />
    <inkscape:path-effect
       effect="bspline"
       id="path-effect2"
       is_visible="true"
       lpeversion="1.3"
       weight="33.333333"
       steps="2"
       helper_size="0"
       apply_no_weight="true"
       apply_with_weight="true"
       only_selected="false"
       uniform="false" />
  </defs>
  <sodipodi:namedview
     id="namedview1"
     pagecolor="#ffffff"
     bordercolor="#000000"
     borderopacity="0.25"
     inkscape:showpageshadow="2"
     inkscape:pageopacity="0.0"
     inkscape:pagecheckerboard="0"
     inkscape:deskcolor="#d1d1d1"
     showgrid="false"
     inkscape:zoom="0.25"
     inkscape:cx="406"
     inkscape:cy="676"
     inkscape:window-width="1920"
     inkscape:window-height="1011"
     inkscape:window-x="0"
     inkscape:window-y="0"
     inkscape:window-maximized="1"
     inkscape:current-layer="layer1" />
  <g
     inkscape:groupmode="layer"
     id="layer1"
     inkscape:label="Layer 1">
    <path
       style="fill:#008000;fill-rule:evenodd;stroke:none;stroke-width:17.841;fill-opacity:1"
       d="m 412.85403,660.56645 c 2.28758,10.89324 8.93246,32.02614 14.10679,44.55342 5.17433,12.52727 8.87796,16.44876 18.30077,18.68188 9.42281,2.23312 24.56412,2.77777 37.30932,-0.32687 12.7452,-3.10464 23.09358,-9.85832 30.60996,-19.88024 7.51639,-10.02192 12.20039,-23.31142 14.32457,-34.25921 2.12418,-10.9478 1.68846,-19.55329 -1.52511,-23.74719 -3.21357,-4.1939 -9.20473,-3.97604 -20.96961,-2.34202 -11.76488,1.63402 -29.30266,4.68406 -41.82997,6.20912 -12.52731,1.52505 -20.0435,1.52505 -27.28757,1.08931 -7.24408,-0.43574 -14.21562,-1.30718 -18.73634,-1.4161 -4.52072,-0.10893 -6.59039,0.54465 -4.30281,11.4379 z"
       id="path4"
       inkscape:path-effect="#path-effect5"
       inkscape:original-d="m 408.49673,650.3268 c 6.64488,21.13289 13.28976,42.26579 19.93464,63.39869 3.70378,3.92165 7.40741,7.84314 11.11111,11.76471 15.14192,0.54467 30.28323,1.08932 45.42484,1.63398 10.34879,-6.75394 20.69717,-13.50762 31.04575,-20.26143 4.68419,-13.29003 9.36819,-26.57953 14.05229,-39.86929 -0.43574,-8.60583 -0.87146,-17.21132 -1.30719,-25.81699 -5.99141,0.21787 -11.98257,0.43573 -17.97386,0.6536 -17.53847,3.05017 -35.07625,6.10021 -52.61438,9.15032 -7.51649,0 -15.03268,0 -22.54901,0 -6.97182,-0.87147 -13.94336,-1.74292 -20.91504,-2.61438 -2.06976,0.65361 -4.13943,1.30719 -6.20915,1.96079 z" />
    <path
       style="fill:#ff00cc;fill-rule:evenodd;stroke:none;stroke-width:17.841"
       d="m 558.02736,623.79589 c 19.7413,-10.56192 41.95462,-29.42691 59.61702,-45.36644 17.6624,-15.93953 30.66214,-28.84265 41.26608,-42.24591 10.60394,-13.40325 18.81148,-27.30582 25.5117,-42.38136 6.70022,-15.07554 11.89275,-31.32312 17.5042,-41.2059 5.61145,-9.88278 11.64148,-13.4003 17.8392,-19.09552 6.19772,-5.69522 12.56275,-13.56776 16.91788,-21.35679 4.35513,-7.78902 6.70014,-15.49405 7.87267,-24.28812 1.17253,-8.79407 1.17253,-18.67662 0.20639,-24.85336 -0.96614,-6.17675 -2.89837,-8.64741 -6.31882,-12.29988 -3.42046,-3.65247 -8.40274,-8.55922 -9.84005,-13.00332 -1.43731,-4.4441 0.67037,-8.42529 2.81716,-18.6128 2.14678,-10.18752 4.33253,-26.58064 4.87896,-41.88133 0.54644,-15.30068 -0.54643,-29.50805 -2.69323,-40.12483 -2.14679,-10.61677 -5.34735,-17.64239 -9.60189,-23.49724 -4.25454,-5.85485 -9.56279,-10.53859 -13.89537,-19.59415 -4.33259,-9.05556 -7.68928,-22.4823 -11.39736,-32.94296 -3.70808,-10.46065 -7.76733,-17.95465 -12.21702,-22.95077 -4.4497,-4.99612 -9.28957,-7.49412 -13.1928,-8.27475 -3.90323,-0.78063 -6.86961,0.15612 -10.1093,1.71742 -3.23969,1.56131 -6.7525,3.74705 -11.12413,3.8251 -4.37164,0.078 -9.60183,-1.95158 -13.97345,-5.11322 -4.37162,-3.16163 -7.88443,-7.45507 -11.35831,-11.51443 -3.47388,-4.05937 -6.90863,-7.88443 -11.35834,-9.71893 -4.4497,-1.83451 -9.91407,-1.67838 -13.97343,-3.47389 C 597.34577,103.747 594.69165,100 588.56353,92.310581 582.43541,84.62116 572.83372,72.98985 565.41759,65.378575 c -7.41613,-7.611276 -12.64632,-11.20215 -16.9789,-12.802459 -4.33259,-1.600309 -7.76734,-1.209996 -10.18734,0.663574 -2.42,1.873571 -3.82512,5.230255 -4.4106,10.148353 -0.58548,4.918098 -0.35129,11.397281 -1.36615,16.198249 -1.01485,4.800967 -3.27866,7.923465 -5.81577,10.967992 -2.53711,3.044527 -5.34735,6.010896 -8.50898,6.59636 -3.16163,0.585464 -6.67444,-1.209973 -11.9048,-4.566775 -5.23036,-3.356803 -12.17791,-8.274734 -16.31532,-12.95862 -4.13741,-4.683887 -5.46447,-9.133446 -6.71351,-13.73927 -1.24903,-4.605823 -2.41997,-9.367634 -4.60579,-12.568276 -2.18583,-3.200641 -5.38639,-4.839953 -8.35285,-5.152197 -2.96646,-0.312245 -5.69864,0.702566 -9.17253,2.810326 -3.47389,2.10776 -7.68927,5.308324 -12.33412,10.577716 -4.64486,5.269393 -9.71892,12.607264 -13.93441,19.398895 -4.21549,6.791632 -7.57218,13.036629 -11.24123,15.339499 -3.66905,2.30287 -7.65023,0.663562 -11.47541,-0.42934 -3.82517,-1.092902 -7.4941,-1.639339 -11.28024,-3.473875 -3.78615,-1.834536 -7.68927,-4.957033 -10.18733,-8.313822 -2.49806,-3.356788 -3.59093,-6.947663 -5.03514,-10.265413 -1.4442,-3.31775 -3.23964,-6.362187 -6.01095,-8.118631 -2.77131,-1.756445 -6.5183,-2.224818 -9.99218,-1.209961 -3.47389,1.014857 -6.67445,3.512856 -10.96802,8.587094 -4.29358,5.074238 -9.67988,12.724354 -14.4028,20.686965 -4.72291,7.962611 -8.78216,16.237231 -12.25604,24.277901 -3.47388,8.04068 -6.36218,15.84692 -8.74315,22.20919 -2.38097,6.36226 -4.25447,11.2802 -7.29901,14.12954 -3.04454,2.84935 -7.25991,3.62997 -11.16315,3.70803 -3.90324,0.0781 -7.49411,-0.54644 -10.34347,-1.95161 -2.84936,-1.40518 -4.95704,-3.59093 -6.55737,-7.68935 -1.60032,-4.09842 -2.69319,-10.10923 -4.05933,-14.16858 -1.36614,-4.05935 -3.00545,-6.16704 -5.42546,-6.67444 -2.42002,-0.5074 -5.62058,0.58547 -9.21156,3.86421 -3.59099,3.27874 -7.57217,8.74312 -10.42153,13.81732 -2.84935,5.07421 -4.56672,9.75796 -6.16705,14.20765 -1.60033,4.44969 -3.08351,8.66506 -3.62996,15.72996 -0.54644,7.06489 -0.15613,16.97882 -0.039,26.81498 0.1171,9.83617 -0.039,19.59397 -1.48324,24.78523 -1.44421,5.19127 -4.1764,5.81577 -6.36221,6.24512 -2.1858,0.42936 -3.82512,0.66355 -5.8548,1.95162 -2.02969,1.28808 -4.44963,3.62996 -5.93285,6.98676 -1.48322,3.35679 -2.02966,7.72829 -1.87353,13.23186 0.15614,5.50358 1.01483,12.13889 2.5371,19.67216 1.52227,7.53326 3.70802,15.964 4.87898,21.54561 1.17096,5.5816 1.32709,8.31378 0.19514,10.92895 -1.13195,2.61518 -3.55189,5.11317 -7.61127,4.64475 -4.05939,-0.46841 -9.75795,-3.90316 -14.1686,-5.38637 -4.41065,-1.48322 -7.53315,-1.01484 -9.91412,2.14681 -2.38097,3.16165 -4.02028,9.01633 -4.95705,15.76895 -0.93677,6.75261 -1.17096,14.40273 2.14683,26.69798 3.31779,12.29525 10.18729,29.23481 16.39343,42.19353 6.20615,12.95871 11.74858,21.93589 12.88048,28.06395 1.13189,6.12806 -2.14673,9.40668 -5.50352,14.7151 -3.35678,5.30843 -6.79153,12.6463 -7.37699,18.85244 -0.58546,6.20614 1.67835,11.2802 6.83066,19.28187 5.15231,8.00167 13.19273,18.93041 22.63859,29.23496 9.44586,10.30455 20.29654,19.9843 33.56757,32.74792 13.27104,12.76362 28.9616,28.6103 40.9445,40.59321 11.98291,11.9829 20.25753,20.10139 29.0008,30.445 8.74326,10.34361 17.95463,22.91167 32.47474,30.13261 14.5201,7.22093 34.34796,9.09443 51.87348,9.56281 17.52552,0.46838 32.7477,-0.46837 43.94996,-2.06871 11.20226,-1.60033 18.384,-3.86414 30.60987,-6.12561 12.22586,-2.26147 29.49501,-4.52046 49.23631,-15.08238 z"
       id="path3"
       inkscape:path-effect="#path-effect3"
       inkscape:original-d="m 555.55556,632.09877 c 22.2131,-18.8648 44.42642,-37.72979 66.6393,-56.5944 13.05573,-13.07106 26.08357,-25.94588 39.11167,-38.82095 8.20787,-13.90313 16.41541,-27.8057 24.62312,-41.70855 5.19273,-16.24823 10.38526,-32.49581 15.57789,-48.74371 6.03027,-3.51766 12.0603,-7.03518 18.09045,-10.55277 6.36529,-7.87285 12.73032,-15.74539 19.09548,-23.61809 2.3451,-7.70535 4.69011,-15.41038 7.03517,-23.11558 0,-9.88294 0,-19.76549 0,-29.64824 -1.93228,-2.47074 -3.86451,-4.9414 -5.79674,-7.41207 -4.77848,-4.96647 -9.82587,-9.80712 -14.87335,-14.64788 2.10777,-3.98134 4.21545,-7.96253 6.32318,-11.94379 2.18584,-16.39377 4.37159,-32.78689 6.55738,-49.18033 -1.09292,-14.20793 -2.18579,-28.4153 -3.27869,-42.62295 -3.20069,-7.0259 -6.40125,-14.05152 -9.60187,-21.07728 -5.30846,-4.68394 -10.61671,-9.36768 -15.92506,-14.05152 -3.35682,-13.42728 -6.71351,-26.85402 -10.07026,-40.28103 -4.05941,-7.4943 -8.11866,-14.9883 -12.17798,-22.48244 -4.84007,-2.4981 -9.67994,-4.9961 -14.51991,-7.49415 -2.96649,0.93679 -5.93287,1.87354 -8.8993,2.81031 -3.51295,2.18584 -7.02576,4.37158 -10.53864,6.55738 -5.23039,-2.02971 -10.46058,-4.05933 -15.69087,-6.089 -3.51295,-4.2936 -7.02576,-8.58704 -10.53864,-12.88056 -3.43488,-3.82521 -6.86963,-7.65027 -10.30445,-11.47541 -5.46459,0.15613 -10.92896,0.31226 -16.39344,0.46839 C 597.34577,103.747 594.69165,100 592.03747,96.252927 582.43541,84.621157 572.83372,72.989852 563.23185,61.358314 558.00146,57.767297 552.77127,54.176425 547.54098,50.58548 c -3.43488,0.390328 -6.86963,0.78064 -10.30445,1.17096 -1.40518,3.35682 -2.8103,6.713505 -4.21545,10.070258 0.23419,6.479443 0.46838,12.958626 0.70257,19.437939 -2.2639,3.122623 -4.52771,6.245121 -6.79157,9.367682 -2.81036,2.966491 -5.6206,5.932864 -8.43091,8.899297 -3.51295,-1.795508 -7.02576,-3.590945 -10.53864,-5.386417 -6.94784,-4.918131 -13.89539,-9.836066 -20.84309,-14.754098 -1.32712,-4.449738 -2.65418,-8.899298 -3.98127,-13.348946 -1.17098,-4.762 -2.34192,-9.52381 -3.51288,-14.285715 -3.20069,-1.639377 -6.40125,-3.278688 -9.60187,-4.918033 -2.7323,1.014853 -5.46448,2.029665 -8.19672,3.044497 -4.21554,3.200689 -8.43092,6.401249 -12.64637,9.601874 -5.07426,7.338163 -10.14832,14.676034 -15.22248,22.014051 -3.35682,6.245246 -6.71351,12.490242 -10.07026,18.735361 -3.98135,-1.639375 -7.96253,-3.278686 -11.9438,-4.918031 -3.66908,-0.546459 -7.33801,-1.092896 -11.00702,-1.639344 -3.90328,-3.122623 -7.8064,-6.245121 -11.7096,-9.367682 -1.09292,-3.591016 -2.1858,-7.181889 -3.27869,-10.772833 -1.79551,-3.044558 -3.59095,-6.088993 -5.38642,-9.13349 -3.74715,-0.468393 -7.49414,-0.936768 -11.24122,-1.405152 -3.20069,2.498098 -6.40125,4.996097 -9.60187,7.494145 -5.38653,7.650427 -10.77283,15.300547 -16.15925,22.95082 -4.05941,8.274947 -8.11866,16.549567 -12.17799,24.824357 -2.88842,7.80656 -5.77673,15.6128 -8.6651,23.4192 -1.87358,4.91813 -3.74707,9.83607 -5.62061,14.7541 -4.21554,0.78066 -8.43091,1.56128 -12.64637,2.34192 -3.59102,-0.62452 -7.18189,-1.24902 -10.77284,-1.87353 -2.10777,-2.18584 -4.21545,-4.37159 -6.32318,-6.55738 -1.09292,-6.01105 -2.18579,-12.02186 -3.27869,-18.03279 -1.63938,-2.10777 -3.27869,-4.21546 -4.91803,-6.32318 -3.20069,1.09291 -6.40125,2.18579 -9.60187,3.27868 -3.98135,5.46459 -7.96253,10.92897 -11.9438,16.39345 -1.71744,4.68393 -3.43482,9.36768 -5.15222,14.05152 -1.48325,4.21554 -2.96644,8.43091 -4.44965,12.64637 0.39033,9.91433 0.78064,19.82826 1.17096,29.74239 -0.15613,9.7582 -0.31226,19.516 -0.46839,29.274 -2.73229,0.62453 -5.46448,1.24903 -8.19672,1.87354 -1.63937,0.2342 -3.27869,0.46838 -4.91803,0.70258 -2.42003,2.34196 -4.83997,4.68384 -7.25995,7.02576 -0.54646,4.37167 -1.0929,8.74317 -1.63935,13.11475 0.85872,6.63557 1.71741,13.27088 2.57611,19.90632 2.18584,8.43109 4.37159,16.86183 6.55738,25.29274 0.15613,2.7323 0.31226,5.46448 0.46839,8.19673 -2.42004,2.49809 -4.83997,4.99609 -7.25996,7.49414 -5.69878,-3.43488 -11.39734,-6.86963 -17.09602,-10.30445 -3.12262,0.46839 -6.24512,0.93677 -9.36768,1.40515 -1.63937,5.85492 -3.27869,11.7096 -4.91803,17.56441 -0.2342,7.65042 -0.46838,15.30054 -0.70258,22.95082 6.86977,16.94022 13.73927,33.87978 20.6089,50.81967 5.54266,8.97754 11.08509,17.95472 16.62764,26.93208 -3.27876,3.27876 -6.55738,6.55738 -9.83607,9.83607 -3.43488,7.33816 -6.86963,14.67603 -10.30445,22.01405 2.2639,5.07426 4.52771,10.14832 6.79157,15.22248 8.04076,10.92918 16.08119,21.85792 24.12178,32.78689 10.85112,9.68013 21.7018,19.35987 32.55269,29.03981 15.69118,15.84731 31.38174,31.69399 47.0726,47.54098 8.27495,8.11882 16.54957,16.23732 24.82436,24.35597 9.21174,12.56856 18.42311,25.13662 27.63466,37.70492 19.82866,1.87358 39.65652,3.74708 59.48478,5.62061 15.22278,-0.93679 30.44496,-1.87353 45.66745,-2.8103 7.18203,-2.2639 14.36377,-4.52772 21.54566,-6.79157 17.26984,-2.25908 34.53899,-4.51808 51.80849,-6.77711 z"
       transform="translate(-1.0424404e-6,2.3968913e-5)" />
    <path
       id="path2"
       style="fill:#00aa00;fill-rule:evenodd;stroke:none;stroke-width:17.841"
       d="M 647.86133 602.83201 C 642.53424 602.90511 637.481 603.17912 632.85742 603.65427 C 623.61027 604.60458 616.0826 606.36002 608.33399 610.23435 C 600.58537 614.10868 592.61664 620.10202 585.05078 625.87693 C 577.48492 631.65184 570.32228 637.20722 562.53711 643.85935 C 554.75194 650.51148 546.34436 658.26096 540.64258 659.10154 C 540.06427 659.1868 539.5308 659.15388 539.00391 659.10544 C 532.62887 669.52179 528.52949 680.15591 524.18359 689.37888 C 519.28159 699.78206 514.05266 708.38707 506.80859 714.26951 C 499.56453 720.15194 490.30498 723.31193 481.69922 725.10935 C 473.09346 726.90677 465.14267 727.34195 456.97266 726.90623 C 448.80264 726.4705 440.41375 725.164 432.625 718.90037 C 424.83625 712.63674 417.64697 701.41558 406.20899 686.38279 C 397.67004 675.16016 386.76097 661.81651 375.43555 649.15427 C 373.79987 649.27333 372.27069 649.26804 370.92969 648.89255 C 366.77683 647.72972 363.78764 643.63284 358.51563 638.83005 C 353.24361 634.02727 345.68916 628.51871 334.68945 622.95701 C 323.68975 617.3953 309.21394 611.76716 294.37305 608.33201 C 279.53215 604.89686 264.32741 603.65565 252.41211 603.61912 C 240.49682 603.58258 231.87132 604.75147 221.67383 608.29685 C 211.47634 611.84223 199.70797 617.76311 186.11133 627.55857 C 172.51469 637.35403 157.08996 651.02354 145.61328 661.87888 C 134.1366 672.73422 126.60894 680.7748 123.13672 688.26755 C 119.6645 695.76031 120.24928 702.70481 124.92774 712.64646 C 129.60619 722.58811 138.37782 735.52721 147.11328 748.28318 C 155.84875 761.03915 164.54689 773.61052 172.84375 782.2363 C 181.14062 790.86208 189.03548 795.54115 198.75781 799.8906 C 208.48015 804.24005 220.02908 808.26015 229.45899 811.7324 C 238.88889 815.20465 246.19964 818.12816 249.16016 821.52732 C 252.12067 824.92648 250.73123 828.80077 248.35547 838.88865 C 245.97971 848.97653 242.61771 865.27796 242.39844 884.46677 C 242.17917 903.65559 245.1025 925.73079 248.09961 942.21482 C 251.09672 958.69885 254.16726 969.59099 257.82227 978.72849 C 261.47728 987.86599 265.717 995.24873 272.36914 998.6113 C 279.02128 1001.9739 288.08412 1001.3152 300.98633 999.19529 C 313.88854 997.07537 330.62913 993.49453 344.29883 988.92576 C 357.96853 984.35699 368.56762 978.80193 379.75195 972.11326 C 390.93628 965.42458 402.70403 957.60212 411.95117 950.62107 C 421.19831 943.64002 427.92485 937.50043 432.71289 936.00193 C 437.50093 934.50343 440.3503 937.64662 444.73633 942.76365 C 449.12235 947.88068 455.04319 954.97008 461.69531 961.95115 C 468.34744 968.93221 475.73076 975.80489 484.42969 982.20115 C 493.12862 988.59741 503.14239 994.51719 514.36328 1000.3652 C 525.58417 1006.2132 538.01128 1011.9893 549.08594 1016.5215 C 560.1606 1021.0537 569.88283 1024.3427 578.17969 1026.5722 C 586.47655 1028.8018 593.34892 1029.9704 597.51563 1030.0801 C 601.68233 1030.1897 603.14292 1029.2399 605.33594 1026.2793 C 607.52896 1023.3187 610.45411 1018.347 615.49805 1007.1992 C 620.54199 996.05134 627.705 978.72872 632.93164 961.25779 C 638.15828 943.78685 641.44761 926.16909 642.61719 911.95115 C 643.78677 897.7332 642.8356 886.9145 640.64258 876.09568 C 638.44956 865.27686 635.01497 854.45949 632.41992 846.45505 C 629.82488 838.45062 628.06944 833.25988 627.375 829.82419 C 626.68056 826.38851 627.04694 824.70698 629.34961 824.45115 C 631.65228 824.19531 635.8925 825.36608 642.39844 826.06052 C 648.90437 826.75497 657.67639 826.97288 667.54492 825.58396 C 677.41345 824.19504 688.37622 821.19936 699.56055 817.76365 C 710.74487 814.32794 722.14866 810.45346 737.86524 803.83787 C 753.58181 797.22228 773.61189 787.86632 788.19531 780.15427 C 802.77874 772.44222 811.91459 766.37368 818.20117 761.43943 C 824.48776 756.50518 827.92448 752.70465 830.26367 749.2324 C 832.60287 745.76014 833.84572 742.61706 833.8457 739.54685 C 833.84569 736.47665 832.60138 733.47931 825.69336 722.80662 C 818.78534 712.13392 806.21322 693.78647 790.78906 676.13279 C 775.3649 658.47911 757.09067 641.52017 741.44727 630.08005 C 725.80386 618.63994 712.7917 612.71885 700.32813 609.02732 C 687.86456 605.33578 675.94993 603.87467 664.50977 603.21677 C 658.78968 602.88783 653.18842 602.75891 647.86133 602.83201 z "
       transform="translate(-1.0424404e-6,2.3968913e-5)" />
    <path
       style="display:inline;fill:#000000"
       d="m 584.12149,1037.4037 c -23.46337,-5.1334 -63.21031,-21.8854 -89.23111,-37.60785 -18.79644,-11.3573 -35.87547,-26.42726 -53.88789,-47.54885 l -6.18533,-7.25299 -3.15858,2.23851 c -5.33854,3.78347 -20.88069,15.74539 -24.61951,18.94826 -1.94649,1.66747 -7.13907,5.05836 -11.53907,7.53533 -4.4,2.47696 -12.6983,7.14505 -18.44066,10.37353 -19.01776,10.69218 -35.9424,16.53146 -65.44398,22.57946 -10.59761,2.1725 -15.96603,2.7023 -27.96497,2.7598 l -14.8496,0.071 -5.82986,-6.2016 c -7.51431,-7.99339 -10.35729,-12.95276 -15.03032,-26.21934 -10.32899,-29.3236 -16.49968,-82.15235 -13.04092,-111.64644 1.01739,-8.67567 4.92821,-29.78681 6.68975,-36.11219 0.77517,-2.78349 -1.86082,-4.15521 -22.58944,-11.75517 -17.51739,-6.42258 -33.56838,-13.79618 -40.67433,-18.6852 -11.01799,-7.58058 -22.80505,-21.92463 -43.78832,-53.28743 -31.33511,-46.83527 -30.57784,-56.09815 7.53058,-92.11262 24.35014,-23.01218 43.67301,-37.62625 61.43207,-46.46168 16.50019,-8.20912 26.7817,-11.04783 42.5,-11.73418 30.9169,-1.35 62.75029,5.369 90.5702,19.11645 6.83639,3.37826 12.4298,6.03169 12.4298,5.89652 0,-2.42454 -41.89196,-45.41258 -76.5,-78.50157 -27.29038,-26.09252 -37.57765,-37.03521 -48.21439,-51.28619 -14.31291,-19.17629 -17.79516,-28.13817 -15.41364,-39.66839 1.22971,-5.95363 5.78473,-16.06075 10.06853,-22.34097 1.12548,-1.65 2.04929,-3.83973 2.05291,-4.86607 0.004,-1.02634 -3.64095,-9.35134 -8.09906,-18.5 -18.35858,-37.67437 -24.84742,-58.92616 -23.55432,-77.14342 0.87008,-12.25786 3.84046,-21.171 8.66233,-25.99287 6.02923,-6.02923 12.43716,-6.43153 23.62607,-1.48326 2.95436,1.30656 5.37157,2.14282 5.37157,1.85835 0,-0.28446 -1.16214,-5.5472 -2.58254,-11.69497 -7.83442,-33.90905 -7.31722,-50.68643 1.83011,-59.36729 3.49077,-3.31274 8.75712,-6.31047 11.08614,-6.31047 2.32435,0 2.63737,-3.28268 2.67,-28 0.0341,-25.85373 0.74847,-31.23573 5.92885,-44.6689 5.40832,-14.02425 15.20077,-27.23937 23.2776,-31.41362 4.74331,-2.45143 11.39008,-2.45866 15.39461,-0.0168 4.21661,2.57123 6.78081,7.10032 9.39787,16.59928 2.7914,10.13172 3.98089,11.5 9.99736,11.5 6.07413,0 7.00304,-1.09594 11.9115,-14.05344 12.33865,-32.57193 26.1456,-57.613414 38.76145,-70.301093 14.7694,-14.853488 30.73012,-12.108006 39.72042,6.832507 4.34416,9.152151 7.42899,12.054799 15.46197,14.548847 9.52842,2.958348 9.61097,2.927188 14.92386,-5.633172 21.49897,-34.640077 39.22467,-47.027852 54.49071,-38.081357 5.67575,3.326209 8.9201,8.522669 12.40419,19.867701 3.04,9.898966 4.35913,11.705558 13.65471,18.700563 10.43431,7.851908 11.27186,8.119542 14.26459,4.558181 3.64758,-4.340622 4.26989,-6.423267 5.36133,-17.942373 1.10052,-11.614875 3.04327,-16.634008 8.07849,-20.870865 3.85137,-3.24071 6.70922,-4.000793 12.831,-3.412568 10.49255,1.008202 22.10889,10.288409 40.33552,32.22375 19.76637,23.788374 18.19334,22.248047 23.50386,23.015186 9.09689,1.314106 14.75845,4.792233 24.61543,15.122283 12.92352,13.54376 15.68502,14.60242 25.89603,9.92767 6.723,-3.07789 16.44779,-4.28466 19.86725,-2.46537 4.25631,2.26454 11.96871,9.2651 15.48617,14.05684 5.3026,7.22359 9.68965,17.00503 15.43166,34.40671 6.69595,20.29271 8.46838,23.78166 18.28844,36 14.6978,18.28734 17.10731,26.54029 17.07951,58.5 -0.0161,18.5046 -0.39273,23.7988 -2.70334,38 -1.47655,9.075 -3.54222,20.08798 -4.59037,24.4733 -2.1839,9.13712 -2.1672,9.19456 4.96361,17.06865 2.69151,2.97206 5.83178,7.24263 6.97838,9.49014 2.9928,5.86638 4.17068,18.2592 2.96098,31.15328 -2.25039,23.98648 -9.96526,38.41786 -31.97633,59.81463 -12.49454,12.14584 -14.47063,15.50889 -21.87918,37.23541 -8.51849,24.98161 -19.52339,48.98011 -32.198,70.21453 -11.42728,19.1447 -19.99425,27.7525 -38.42384,38.60693 -13.62273,8.02335 -13.54512,7.96804 -9.75984,6.95529 7.35775,-1.96857 27.20229,-3.27282 40.25984,-2.64601 46.11548,2.21371 71.85239,13.49164 110.674,48.49744 23.22575,20.94287 52.65908,57.17521 67.53158,83.13117 3.8786,6.76905 4.28996,8.12466 4.24837,14 -0.0595,8.40788 -2.61359,13.36991 -11.4101,22.16748 -8.62239,8.62343 -24.06158,18.61176 -45.98265,29.74832 -33.15547,16.84397 -61.62943,28.53219 -87.5612,35.94283 -22.08351,6.31091 -29.29432,7.51855 -45.06439,7.54721 l -14.0644,0.0256 3.35225,10.53691 c 8.54281,26.85213 10.78083,40.5007 9.99479,60.95328 -1.22594,31.89855 -11.92419,70.4452 -30.13735,108.58725 -6.36731,13.3344 -10.75138,19.499 -15.67968,22.0475 -3.48117,1.8002 -13.17779,1.7345 -21.77973,-0.1474 z M 603.14596,1013 c 10.84749,-21.07789 22.13773,-52.77852 26.90835,-75.55305 2.54996,-12.17327 3.22425,-18.10161 3.63365,-31.94695 0.59928,-20.26652 -0.58946,-27.38425 -9.19911,-55.08072 C 621.46998,840.70785 619,831.97633 619,831.01592 c 0,-2.84127 -3.66756,-6.66574 -8.08864,-8.43471 C 606.60009,820.85618 586.11606,808.34135 577.5,802.16836 565.66706,793.69062 556.0587,785.13723 532.96628,762.5243 512.01773,742.01072 507.2931,737.88575 500.6351,734.29659 l -7.79746,-4.20341 -4.8521,1.91252 c -2.66866,1.05189 -7.73725,2.41495 -11.26354,3.02902 l -6.41143,1.11651 -13.61213,27.67438 c -21.44226,43.59356 -29.12562,64.71769 -32.7691,90.09325 -2.38329,16.59875 0.81928,35.63797 8.76053,52.08114 1.99217,4.125 4.88084,10.54825 6.41927,14.27389 3.1348,7.59162 10.92997,16.75573 33.3877,39.25102 14.45941,14.4836 24.75332,21.9058 45.50316,32.80903 30.74213,16.15376 65.47279,28.97756 76.89309,28.39146 l 4.39308,-0.2254 z m -14.09376,-5.0556 C 579.95119,998.11831 560.94393,965.54441 540.65311,925 518.99122,881.71598 507.51817,854.62069 496.16362,819.93152 484.64502,784.74121 476.106,742.90663 479.95607,740.52715 c 1.98654,-1.22775 4.08213,4.64541 9.5063,26.64256 12.02565,48.76884 26.35357,87.01625 52.9839,141.43701 16.36321,33.43927 29.61632,58.41926 41.06093,77.39328 10.24634,16.9874 11.94968,20.9929 10.03862,23.6064 -1.21219,1.6578 -1.52652,1.5416 -4.49362,-1.662 z M 300.83274,990.47837 c 41.90878,-6.79677 67.23264,-18.19235 108.77127,-48.9464 8.74279,-6.47292 16.90849,-12.15449 18.14599,-12.62571 2.79657,-1.06488 2.83045,-2.84816 0.15382,-8.09479 -5.67888,-11.13151 -11.8288,-30.36601 -13.9549,-43.6453 -2.38108,-14.87188 0.0182,-39.28068 5.45169,-55.46319 5.78496,-17.22914 31.79048,-73.74287 35.77189,-77.73745 0.80338,-0.80604 2.23139,-2.64415 3.17337,-4.08468 1.71015,-2.61529 1.70803,-2.62007 -1.4416,-3.25 C 455.16942,736.28388 451.87579,736 449.5851,736 c -5.42849,0 -14.39488,-2.3652 -18.78431,-4.95503 -3.78549,-2.23349 -7.42638,-1.95631 -18.30079,1.39326 -2.75,0.84707 -7.12541,1.54499 -9.72314,1.55095 -11.99984,0.0275 -53.21156,8.61686 -69.77686,14.54291 -17.98725,6.43475 -34.39037,16.97107 -43.63108,28.02585 -5.32665,6.37235 -22.80576,34.16258 -26.38012,41.94206 -2.67116,5.81371 -4.92709,15.54839 -9.15378,39.5 -7.25809,41.12982 6.08972,122.66487 21.63271,132.14337 3.80174,2.3184 12.43258,2.43238 25.36501,0.335 z M 279.88485,981.75 C 279.2039,974.35833 292.02426,945.74014 311.80338,910.5 347.81943,846.33078 382.29826,797.03751 413.5,765.10764 433.03961,745.11205 436.84624,742 441.76505,742 c 3.45611,0 3.46083,0.006 1.84446,2.47321 -0.89128,1.36027 -7.14717,7.99777 -13.90197,14.75 -29.9566,29.94523 -55.4995,64.06081 -87.43269,116.77679 -26.80104,44.24372 -36.90722,62.66329 -50.7486,92.49471 -2.55058,5.4971 -5.59085,11.0096 -6.75615,12.25 -2.32428,2.47409 -4.70482,2.96395 -4.88525,1.00529 z M 680.5,814.10229 c 23.86812,-5.925 48.5388,-15.11088 79.5,-29.601 43.1507,-20.19493 66.83705,-37.04578 64.60029,-45.95771 -0.78988,-3.14714 -17.8574,-28.5414 -27.11602,-40.34513 C 780.79318,676.91913 761.63732,657.34818 743,642.53354 c -19.8449,-15.77452 -37.63279,-24.1409 -60,-28.22046 -13.7145,-2.50138 -49.8198,-2.52862 -59,-0.0445 -12.75506,3.45146 -25.29181,11.72652 -55.32247,36.51642 -8.18517,6.75675 -16.9736,13.35002 -19.52983,14.65172 -7.91556,4.03078 -13.75668,12.28977 -18.66907,26.39691 -2.32262,6.66996 -4.99142,13.30006 -5.93069,14.73355 -2.14823,3.27863 -1.76026,3.64681 2.51829,2.38984 7.0099,-2.05939 46.88499,-9.87947 57.96538,-11.36784 23.55997,-3.16468 51.76846,-4.86285 70.96839,-4.27234 31.60553,0.97205 54.68312,5.73419 112.47252,23.20913 28.03876,8.47865 38.61302,12.23941 41.02748,14.59152 1.72715,1.68256 1.79536,2.07804 0.5,2.89891 -1.98847,1.2601 -5.50774,0.59237 -24.5,-4.64851 -26.39102,-7.28255 -65.30565,-17.13261 -76.5,-19.36366 -42.13844,-8.39825 -73.58248,-9.00579 -126,-2.43449 -17.64543,2.21211 -59.27943,9.44906 -63.35288,11.01219 C 518.4388,719.04559 518,718.65267 518,717.10699 518,715.94814 517.77626,715 517.50281,715 c -0.27346,0 -3.11005,1.92347 -6.30354,4.27439 l -5.80634,4.27439 4.33216,2.82262 c 2.38269,1.55244 11.80668,10.00768 20.9422,18.78941 19.08323,18.3442 34.14414,31.74396 49.83271,44.33639 13.69075,10.98889 20.24222,15.27663 33.22042,21.74178 8.95287,4.45992 10.93722,5.07736 16,4.97848 3.17877,-0.0621 7.80458,0.28899 10.27958,0.78015 8.53849,1.69444 27.45981,0.34176 40.5,-2.89532 z M 260.59243,800.75 c 20.85884,-33.03173 35.46726,-47.55679 59.14225,-58.80476 11.55375,-5.48918 20.63497,-8.30548 39.76532,-12.33215 18.62216,-3.9197 18.98199,-3.20156 -5.07773,-10.1341 C 304.71913,705.15757 248.59706,697.19398 175,694.01939 c -29.52392,-1.27351 -33,-1.65329 -33,-3.60541 0,-2.71599 5.42311,-3.6168 25,-4.15267 31.92189,-0.87379 85.06819,3.51687 130.8644,10.8113 20.26776,3.22825 30.17205,5.68361 60.6356,15.03208 15.95,4.89463 31.7,9.36875 35,9.94248 6.46264,1.12358 18.91844,-0.0656 20.84274,-1.98991 1.65122,-1.65122 -2.84906,-14.20014 -7.13707,-19.90157 C 405.16755,697.44577 397.875,689.1922 391,681.81443 c -6.875,-7.37777 -14.65563,-15.75429 -17.29029,-18.61451 -2.63465,-2.86021 -6.45965,-6.05906 -8.5,-7.10857 -2.04034,-1.0495 -5.05971,-3.34086 -6.70971,-5.0919 -8.45079,-8.96832 -21.75256,-17.53673 -37.99311,-24.47349 -21.03956,-8.98654 -36.99671,-12.38478 -62.00689,-13.205 -16.15901,-0.52994 -18.86935,-0.37524 -26.5,1.51264 -10.96125,2.7119 -29.80856,12.15991 -41.5,20.80362 -21.80258,16.11909 -54.04659,46.63338 -58.49902,55.36086 -4.51934,8.85863 -1.42946,16.73263 17.85563,45.50192 19.68942,29.37246 30.16787,42.07698 40.48652,49.0876 5.4445,3.69906 15.75625,8.24756 33.65687,14.84601 11.97174,4.41298 24.60819,9.90073 28.67841,12.45445 0.0981,0.0616 3.65943,-5.40056 7.91402,-12.13806 z M 471.5,717.95959 c 12.46958,-1.78278 34.66067,-14.41136 38.44925,-21.88083 2.56714,-5.06132 7.72351,-21.57219 9.14308,-29.27644 2.29806,-12.47203 -0.32674,-15.20778 -14.43184,-15.04191 -11.94936,0.14052 -22.98147,2.36323 -30.45537,6.13605 -11.18225,5.64478 -23.4348,6.18045 -46.14801,2.01753 -15.50414,-2.84163 -14.58604,-3.47288 -10.66957,7.33601 8.82818,24.36456 17.76096,43.66198 22.09659,47.73509 3.80529,3.57488 18.359,4.92703 32.01587,2.9745 z m -16.64334,-80.53264 c 0.80224,-0.6904 -3.9085,-25.48444 -5.71053,-30.05622 -1.0692,-2.71258 -4.91952,-9.83881 -8.55626,-15.83606 -3.63674,-5.99724 -7.10417,-12.73093 -7.70541,-14.96375 -1.83145,-6.8015 -4.50966,-11.02768 -10.39998,-16.41111 -6.86672,-6.27579 -12.30957,-8.07314 -27.47909,-9.07417 -7.39717,-0.48814 -11.58545,-1.23569 -13.33093,-2.37937 -1.3998,-0.91718 -4.20293,-4.82249 -6.22919,-8.67846 -2.02625,-3.85596 -5.4891,-8.64157 -7.69523,-10.63467 -3.60405,-3.25604 -4.44862,-3.57451 -8.32182,-3.13794 -5.07659,0.57221 -12.77183,4.81339 -15.05451,8.2972 -1.95085,2.97737 -1.62293,3.91533 6.97401,19.9476 8.50005,15.85159 14.15213,24.22524 17.88318,26.49422 2.93269,1.78348 4.39197,1.92191 14.2969,1.3562 14.74712,-0.84227 17.5054,0.63824 25.8957,13.89958 l 3.63796,5.75 h 9.38748 c 5.16312,0 10.11593,0.27953 11.00626,0.62118 4.13184,1.58554 6.24579,13.53497 2.97337,16.80739 -1.89211,1.89211 -1.13427,1.89105 -6.65673,0.009 -5.99792,-2.04369 -13.12903,-1.59963 -13.59316,0.84646 -0.1897,0.99977 2.22489,5.24965 5.49138,9.66527 l 5.82994,7.8809 9,0.33473 c 8.46099,0.31467 17.55826,-0.0512 18.35666,-0.73833 z m 25.34196,-5.49386 c 6.99847,-2.35761 12.3936,-5.80059 22.10057,-14.10377 10.45293,-8.94125 13.28159,-8.81717 18.91861,0.8299 4.12567,7.06058 6.09348,8.45695 8.51344,6.04117 0.97282,-0.97114 4.28662,-6.13851 7.364,-11.48305 C 543.78943,601.59142 546.95963,599 554.48792,599 c 14.11854,0 38.23133,-10.33625 50.40405,-21.60633 C 613.33905,569.57297 617,562.9155 617,555.37508 c 0,-7.02522 -1.62824,-8.62594 -7.92467,-7.79068 -3.72809,0.49454 -5.62578,0.17543 -8.90486,-1.49743 -4.94116,-2.5208 -6.81218,-2.21953 -16.67047,2.68427 -12.84778,6.39085 -48.7323,28.58273 -54.35985,33.61749 -1.29791,1.1612 -3.91712,4.53207 -5.82045,7.49082 -1.96422,3.0534 -3.83335,4.99923 -4.32264,4.5 -0.47412,-0.48375 -1.15985,-8.07955 -1.52384,-16.87955 -0.88047,-21.28673 -1.1847,-22.2817 -9.28867,-30.37852 -7.37939,-7.37287 -11.67967,-9.71263 -15.91514,-8.65932 -1.62043,0.40298 -6.57086,4.56626 -11.93209,10.03481 -15.40403,15.71239 -20.28747,28.50044 -20.31996,53.21101 L 460,614.91596 l 4.36143,8.29202 c 2.5328,4.81539 5.3629,8.80993 6.75,9.52728 2.95539,1.52839 1.88981,1.62245 9.08719,-0.80217 z M 345.41821,582.39301 c 2.54591,-0.97696 1.96472,-10.70228 -1.41821,-23.7313 -6.03178,-23.23083 -2.63763,-35.6311 10.42347,-38.08137 1.92593,-0.36131 6.33198,0.25182 11.13205,1.5491 10.91071,2.94875 15.47688,3.42803 16.54822,1.73695 1.44667,-2.28355 1.0041,-8.20758 -1.08965,-14.58545 -4.99248,-15.20787 -8.9578,-21.68855 -17.16415,-28.0521 -11.8049,-9.15401 -24.58423,-28.29357 -28.37753,-42.50093 -1.2988,-4.8645 -2.79707,-7.14444 -9.52866,-14.5 -8.46285,-9.24728 -11.99848,-11.53916 -15.66383,-10.15367 -6.78914,2.56626 -2.79176,24.73285 8.7059,48.27663 4.66943,9.56161 6.31286,12.29126 15.35241,25.49962 4.73196,6.91422 4.80508,9.14951 0.29927,9.14951 -5.44858,0 -11.34827,-5.46348 -23.95396,-22.18289 -7.02737,-9.32066 -12.268,-14.19484 -16.90879,-15.72643 -4.5766,-1.51042 -7.13524,-0.48774 -15.86061,6.33939 -3.80872,2.98011 -8.55862,5.95755 -10.55535,6.61653 l -3.63042,1.19815 0.52551,11.08701 c 0.47513,10.02425 0.3808,10.89919 -0.98404,9.12762 C 261.33381,490.94641 255,477.512 255,475.91853 c 0,-0.6669 1.50504,-3.05889 3.34453,-5.31554 5.65192,-6.93363 5.87041,-7.75796 3.36797,-12.70722 -2.08083,-4.11543 -2.83738,-4.63382 -12.7125,-8.71066 -15.33512,-6.33095 -16.66078,-6.71153 -18.38723,-5.2787 -1.89336,1.57135 -4.61547,9.56711 -4.60339,13.52173 0.0249,8.14231 19.45216,33.60992 42.67214,55.93973 l 8.18151,7.86787 8.20277,-8.36787 c 4.51151,-4.60233 8.39568,-7.83281 8.63149,-7.17885 0.2358,0.65396 -0.32646,2.34158 -1.24946,3.75025 -2.20701,3.36833 -2.98556,13.81368 -1.53747,20.62736 1.09523,5.15335 1.88748,6.16905 15.37219,19.708 7.8196,7.85104 16.01745,15.17859 18.21745,16.28344 2.2,1.10485 6.02404,4.54321 8.49786,7.64081 2.47382,3.09759 5.84882,6.45586 7.5,7.46281 3.49291,2.13013 2.9392,1.99156 4.92035,1.23132 z m 103.20616,-28.15832 c 0.6184,-0.40408 1.45351,-2.30969 1.8558,-4.23469 0.91159,-4.36201 5.61794,-12.80409 8.8098,-15.80269 l 2.40388,-2.25832 2.66726,4.0305 c 2.46366,3.72284 3.01348,4.03051 7.20274,4.03051 5.2213,0 9.09015,-1.75257 15.43615,-6.99249 2.475,-2.04362 6.40556,-4.9076 8.73458,-6.3644 4.65342,-2.91072 7.86118,-8.24928 10.92722,-18.18582 1.51775,-4.91877 1.8382,-9.35667 1.8382,-25.45729 0,-18.80256 -0.0894,-19.67849 -2.5,-24.49042 -1.94155,-3.87565 -3.32882,-5.29872 -6.21037,-6.37061 -3.5291,-1.31277 -4.26193,-1.17703 -15,2.77824 -18.06986,6.65587 -18.53386,6.91317 -20.69483,11.47562 -1.06994,2.25894 -3.18082,8.76717 -4.69085,14.46272 -3.80777,14.36214 -7.74541,19.59573 -12.05339,16.02042 -3.20639,-2.66106 -15.53775,-21.10645 -18.46052,-27.61346 -1.67065,-3.71938 -4.14058,-10.56408 -5.48873,-15.21044 l -2.45119,-8.44793 5.90868,-6.05207 5.90869,-6.05207 1.16216,-17 c 1.31434,-19.22611 3.49918,-35.62969 5.50154,-41.30498 4.26348,-12.084 11.24886,-21.89354 17.87434,-25.10088 5.38909,-2.60881 7.70868,-2.62638 12.43329,-0.0941 4.63968,2.48672 13.64273,2.6445 25.25069,0.4425 10.00169,-1.89728 13.06212,-1.31988 17.56187,3.31337 12.10646,12.46562 15.74814,23.98355 18.88964,59.74413 2.15292,24.50744 3.19093,30.80994 5.97867,36.30083 1.5129,2.97991 2.63013,7.38911 3.05367,12.05144 1.12286,12.36057 1.97738,12.85671 6.71313,3.89773 6.28361,-11.8872 14.41604,-17.75 24.62147,-17.75 4.53357,0 7.32994,-2.97828 13.02948,-13.87703 2.89593,-5.53765 5.73559,-10.35909 6.31038,-10.71432 0.7133,-0.44085 0.82966,1.69323 0.36652,6.72273 l -0.67853,7.36862 4.99825,3.7068 c 6.22967,4.62004 9.03915,8.4266 12.63079,17.11343 4.40328,10.64987 8.24847,11.98337 12.26254,4.2526 2.15277,-4.14606 3.83666,-50.45783 2.55921,-70.38576 -0.82599,-12.8852 -1.11973,-14.33878 -3.62954,-17.96043 -4.247,-6.12843 -11.04751,-10.51244 -17.07329,-11.00645 -9.21152,-0.75518 -10.70876,1.25079 -33.2912,44.60276 -9.05815,17.38913 -17.36023,32.8677 -18.44907,34.39683 -2.39659,3.36571 -4.25081,3.66497 -3.28521,0.53022 1.49999,-4.86959 15.95761,-37.92901 21.69661,-49.61239 7.0331,-14.31788 11.79993,-21.11789 23.33931,-33.29411 4.57741,-4.83002 9.06891,-10.22515 9.98111,-11.98916 2.18258,-4.22063 1.46421,-10.16927 -3.08023,-25.50682 -1.9307,-6.51613 -5.7855,-19.72252 -8.56622,-29.34752 -11.0279,-38.17121 -25.31102,-56.08943 -44.62169,-55.97804 -16.95432,0.0978 -24.46121,18.26144 -27.26819,65.97804 -1.20401,20.46713 -1.90572,26.80926 -3.24857,29.36073 -0.9006,1.71118 -1.28947,1.55785 -4.83868,-1.90786 l -3.85938,-3.76858 -6.58277,6.15786 c -6.52477,6.1036 -7.91225,6.93339 -8.90562,5.32607 -0.68871,-1.11435 -2.24262,-14.83857 -4.11739,-36.36513 -1.84049,-21.13291 -3.84114,-29.56241 -9.91088,-41.75846 -5.62441,-11.30123 -9.20499,-16.57355 -14.51122,-21.36741 -4.04735,-3.65654 -4.21281,-3.70567 -11.83461,-3.5143 -6.95808,0.17472 -8.36717,-0.1314 -14.11279,-3.0659 l -6.38291,-3.26 -4.92433,4.83149 c -6.97925,6.84767 -11.38698,16.33666 -14.34334,30.87842 -5.00455,24.61637 -5.62924,54.18275 -1.95339,92.45307 2.12581,22.13245 4.51689,33.38769 9.03583,42.53331 4.42105,8.94751 5.63823,16.0739 2.92335,17.1157 -2.61424,1.00317 -4.88241,-2.35942 -8.03695,-11.91492 -4.8512,-14.69487 -13.04365,-29.45949 -22.38113,-40.33578 -5.0344,-5.86407 -16.10336,-15.0863 -19.78929,-16.48769 -4.93034,-1.87451 -16.51691,6.81724 -20.82452,15.62166 -2.24308,4.58471 -2.76501,7.24279 -3.19231,16.25802 -0.97208,20.50881 3.96683,61.20668 9.89653,81.54991 1.35364,4.64397 3.09824,8.01528 5.43359,10.5 3.2902,3.50062 3.50286,3.57781 4.88977,1.77476 0.79748,-1.03676 1.71792,-3.96176 2.04541,-6.5 2.02346,-15.683 5.90683,-26.4282 11.42579,-31.61497 3.07876,-2.89344 3.52547,-3 12.57648,-3 6.1065,0 9.81513,0.43079 10.61767,1.23333 1.96543,1.96543 0.54377,2.47086 -9.84892,3.50154 -5.38143,0.53369 -10.78755,1.60341 -12.0136,2.37716 -10.65225,6.72248 -6.5277,34.80996 9.96911,67.88797 6.45679,12.9466 12.64766,22.23756 20.19144,30.30233 7.55955,8.08163 11.30654,10.46386 22.33092,14.19738 8.97985,3.04112 11.90628,3.51294 13.86209,2.23498 z m 89.45994,-195.32576 c -0.0495,-5.63579 0.49918,-11.52986 1.33059,-14.29242 2.60359,-8.65109 17.98158,-30.77527 24.44296,-35.16589 4.94952,-3.36328 9.6674,-3.20033 15.29668,0.52835 2.47358,1.63844 5.36323,3.95714 6.42144,5.15267 l 1.92402,2.1737 -3.5,-0.68218 c -1.925,-0.37521 -6.72722,-0.95696 -10.67161,-1.29278 -6.96514,-0.59302 -7.24946,-0.52739 -9.87583,2.27951 -3.16384,3.38132 -15.42981,22.43829 -19.08466,29.65079 -1.38942,2.74189 -3.35266,8.64242 -4.36275,13.11229 L 538.16861,368.5 Z m -69.82086,-24.55522 c -0.6801,-0.28127 -2.61065,-3.39057 -4.2901,-6.90955 -4.63644,-9.71478 -17.30895,-19.88581 -27.96019,-22.441 -6.71085,-1.60991 -9.62407,-0.2317 -10.99784,5.20294 -1.74905,6.91926 -3.45469,11.10702 -4.69174,11.51937 -4.79987,1.59996 0.72702,-18.77607 6.71791,-24.76696 3.04031,-3.04031 7.7822,-2.43136 17.00222,2.18341 9.78299,4.89654 22.1043,16.03938 26.33888,23.8197 4.05222,7.44526 2.92962,13.48015 -2.11914,11.39209 z m 169.74214,210.34365 c 2.55001,-3.74024 7.72002,-9.58354 11.48892,-12.9851 8.13179,-7.33924 16.47254,-19.58834 24.25571,-35.62159 7.53578,-15.52362 5.90917,-17.89488 -7.2649,-10.59073 C 646.50438,496.57806 610,525.62268 610,530.44235 c 0,1.75121 2.64962,3.3073 8.36521,4.91277 3.84806,1.0809 4.39574,1.7032 7.89783,8.97397 2.74519,5.69936 4.21518,7.72546 5.43461,7.49062 0.91936,-0.17705 3.75793,-3.38211 6.30794,-7.12235 z m -108.2151,-3.59662 c 1.49023,-1.0446 5.03595,-2.14412 7.87937,-2.4434 2.84342,-0.29927 9.06287,-2.15564 13.82099,-4.12527 8.41642,-3.48399 8.80849,-3.54865 14.45115,-2.38318 5.53685,1.14362 5.93621,1.08802 8.80205,-1.22546 1.65112,-1.33289 5.98809,-5.87984 9.63771,-10.10434 6.14559,-7.11364 7.03582,-7.76398 12.05373,-8.8057 4.86535,-1.01004 5.99524,-1.78219 11.07585,-7.56909 3.11178,-3.54436 6.18223,-6.4487 6.82322,-6.45407 3.23552,-0.0271 13.59079,-6.20254 26.63884,-15.88621 18.14911,-13.46945 19.58108,-14.29977 30.17366,-17.49618 11.11941,-3.35539 14.00718,-6.33656 16.274,-16.80039 2.20425,-10.17499 3.56106,-23.54082 3.57074,-35.1751 l 0.008,-9.86764 -3.88235,-3.88236 c -2.1353,-2.13529 -4.7228,-3.88067 -5.75,-3.87861 -5.60096,0.0112 -11.55965,7.12279 -21.36294,25.49626 -8.15449,15.28326 -31.98737,56.59379 -34.72899,60.19721 -2.76162,3.6297 -12.02295,10.00714 -23.77572,16.37218 -6.30721,3.41584 -10.47053,6.82928 -19.67554,16.13162 C 571.0884,524.0506 568,526.48769 568,524.11004 c 0,-0.48947 3.75292,-5.68756 8.33981,-11.55131 9.62866,-12.30898 16.65466,-23.7273 21.51248,-34.96106 5.8648,-13.56243 4.45692,-26.48981 -2.98329,-27.39307 -1.33826,-0.16246 -6.46876,1.24774 -11.4011,3.13379 -4.93235,1.88605 -11.6358,3.74891 -14.89657,4.13968 -5.47309,0.65589 -6.31836,1.1147 -11,5.97067 -2.78923,2.8931 -8.89633,11.42203 -13.57133,18.95318 -4.675,7.53115 -11.37916,17.59239 -14.89814,22.35832 -7.8106,10.57828 -10.62388,16.05845 -11.93028,23.23976 -1.2745,7.00592 -0.57346,10.53872 2.58416,13.0225 3.16469,2.48935 6.5573,2.5158 10.03475,0.0782 z m -69.09752,-80.27796 c 3.34847,-6.15224 5.58552,-7.53813 15.07284,-9.33784 4.27615,-0.81117 10.34194,-2.37713 13.47952,-3.4799 7.99417,-2.80972 15.00031,-2.63717 20.35576,0.50134 3.61297,2.11734 4.66384,2.33003 6.77027,1.37028 1.37141,-0.62486 2.96019,-2.31523 3.53063,-3.75638 3.97189,-10.03454 5.00336,-44.0915 1.71485,-56.62028 -2.68952,-10.24667 -8.67166,-22.36168 -13.45547,-27.25 -3.60968,-3.68853 -4.72077,-4.24843 -8.41026,-4.23813 -2.33811,0.007 -6.72611,0.67619 -9.75111,1.48813 -8.23933,2.21153 -20.65915,1.968 -25.5,-0.5 -2.15759,-1.1 -4.69318,-2 -5.63465,-2 -1.87443,0 -9.58465,10.94321 -12.32992,17.5 -5.53063,13.20931 -8.52404,49.14759 -5.08035,60.99349 2.43304,8.36934 6.88,14.4006 10.67248,14.47471 0.89515,0.0175 2.19108,0.71081 2.87983,1.5407 1.03006,1.24115 0.78561,2.18229 -1.37756,5.30375 -3.0304,4.37288 -3.28071,6.81307 -1.02868,10.02829 1.53569,2.19251 1.68054,2.21411 3.54324,0.52839 1.06815,-0.96666 3.11501,-3.91261 4.54858,-6.54655 z M 293.41111,435.92327 c 2.63605,-3.13277 2.82781,-4.01445 3.09681,-14.23903 0.14184,-5.39087 0.45335,-6.1161 4.26387,-9.92662 3.64719,-3.64719 4.81947,-4.19441 10.39343,-4.85163 7.17604,-0.84612 9.17497,-2.55138 10.84378,-9.25065 1.55632,-6.24774 2.23795,-6.99057 7.92627,-8.638 7.21294,-2.08897 9.5827,-5.1403 11.03289,-14.20604 2.18094,-13.63394 3.74484,-17.61954 8.96005,-22.83475 6.81568,-6.81568 13.91506,-10.18705 22.57179,-10.71895 9.03737,-0.55529 14.1664,1.98596 20.32069,10.06818 2.37638,3.12082 4.91474,5.67422 5.6408,5.67422 1.0635,0 1.41534,-7.82403 1.81002,-40.25 0.68158,-55.99811 1.60355,-61.05339 14.78543,-81.07007 10.69084,-16.23404 13.88786,-17.66929 27.51518,-12.35251 4.91033,1.9158 11.85288,4.0412 15.42788,4.72312 3.575,0.68192 7.625,1.80934 9,2.50538 6.7981,3.44127 13.47172,15.08343 22.01814,38.41071 6.22455,16.98981 9.22758,22.31232 16.08365,28.50637 5.36346,4.84556 5.17223,5.24706 7.84581,-16.473 2.39988,-19.49651 4.03904,-26.31879 8.19858,-34.12288 5.0832,-9.53707 9.05594,-13.48623 15.0016,-14.91257 5.53865,-1.3287 18.6401,-0.80146 24.91757,1.00277 7.47346,2.14796 16.93891,13.03586 27.40722,31.52595 C 594.95238,275.9385 596.58281,278 599.15499,278 c 2.46246,0 2.41048,-3.61472 -0.17255,-12 -3.29716,-10.70355 -4.49564,-23.2759 -3.03283,-31.8153 0.68922,-4.02342 1.47412,-7.0943 1.74423,-6.82419 0.27011,0.27011 1.57908,6.38741 2.90881,13.59399 1.32974,7.20659 4.85276,23.55248 7.82894,36.3242 7.82737,33.5897 10.69043,49.0683 10.89122,58.88139 0.15495,7.57332 -0.10517,9.04276 -2.07281,11.7095 -4.67326,6.33367 -1.83873,12.74529 8.51304,19.25624 l 6.26304,3.93926 -0.26304,-15.47361 c -0.18349,-10.79377 0.0908,-15.83013 0.90685,-16.65243 1.60947,-1.62177 3.21402,4.24028 3.98561,14.56095 0.47801,6.39385 0.17838,9.50577 -1.49244,15.5 -5.60458,20.10698 -2.64341,32.6342 5.73383,24.25695 4.70905,-4.70904 5.72915,-12.17323 9.60173,-70.25695 1.37513,-20.625 3.01742,-42.27823 3.64955,-48.11829 l 1.14933,-10.61828 -3.33664,-5.83185 c -6.20446,-10.84425 -18.40731,-24.90999 -25.97634,-29.94187 -8.10004,-5.3849 -16.31249,-8.54573 -20.23452,-7.78791 -4.1836,0.80835 -3.50847,-1.98795 1.42335,-5.89534 2.29534,-1.81855 5.8515,-4.89718 7.90258,-6.84139 3.72127,-3.52739 3.72718,-3.54614 2.77359,-8.79271 -1.67631,-9.22289 -8.74486,-28.2561 -15.55802,-41.89249 l -6.60518,-13.22013 -0.68732,-16.08323 -0.68733,-16.08323 -3.96654,-4.19664 c -2.18159,-2.30815 -9.45731,-10.799394 -16.16825,-18.869426 -13.03493,-15.674748 -24.02749,-26.500631 -27.894,-27.471063 -1.30681,-0.327989 -2.53067,-0.4298 -2.71969,-0.226247 -0.18901,0.203553 -0.86396,5.826931 -1.49988,12.496395 l -1.15621,12.126299 4.56467,11.286126 c 7.59634,18.781906 6.33986,22.340576 -3.0099,8.524816 -3.32097,-4.90726 -6.5216,-9.08345 -7.1125,-9.280417 -0.5909,-0.196968 -2.59875,1.130165 -4.46187,2.949184 -1.86313,1.819023 -4.48908,4.012733 -5.83545,4.874913 l -2.44795,1.56761 1.80927,4.73749 c 1.7892,4.68496 4.56735,7.82935 14.65568,16.58768 9.34387,8.11202 19.83245,23.85859 31.80998,47.75651 4.9263,9.82908 6.35422,13.7758 7.20988,19.92776 1.17336,8.4361 0.55187,14.31573 -1.51319,14.31573 -0.80487,0 -3.40391,-5.65004 -6.55507,-14.25 -13.87637,-37.87064 -31.1189,-63.41502 -45.06336,-66.76024 -5.92005,-1.4202 -17.11104,-0.86817 -21.20729,1.04612 -2.35626,1.10115 -2.75,1.88347 -2.75,5.46402 0,8.72438 3.07681,35.76863 5.53135,48.6189 1.40577,7.35966 3.1956,16.7562 3.97741,20.8812 1.69745,8.95616 1.94109,30.72167 0.38826,34.6849 -1.08793,2.77666 -1.11472,2.78458 -1.96229,0.57994 -0.47262,-1.22934 -1.58724,-8.87781 -2.47694,-16.99659 -0.8897,-8.11878 -1.75115,-14.89494 -1.91433,-15.05813 -0.16319,-0.16318 -3.42451,3.09778 -7.24738,7.24659 -3.82287,4.14881 -7.26453,7.54329 -7.64813,7.54329 -0.98413,0 -2.42197,-4.04323 -5.33425,-15 -1.3888,-5.225 -2.98262,-10.0625 -3.54184,-10.75 -1.96539,-2.41627 -7.27448,-1.421 -11.88113,2.2273 l -4.39073,3.4773 -0.61266,-26.2273 c -0.63507,-27.18689 -1.08031,-31.64443 -3.54994,-35.54046 -3.27921,-5.17321 -14.8829,-8.0423 -22.99198,-5.68493 -4.67581,1.3593 -6.84666,2.89981 -13.81748,9.80538 -12.61208,12.49401 -16.60562,22.1163 -26.84944,64.69271 -4.24421,17.64022 -6.79782,24.62903 -10.83772,29.66101 l -3.08212,3.83899 0.50595,12.5 c 0.27827,6.875 0.17824,13.38996 -0.22229,14.4777 -0.7255,1.97026 -0.73212,1.97026 -1.76311,0 -0.56918,-1.08774 -1.7936,-5.76448 -2.72093,-10.39276 -2.05226,-10.24285 -4.33624,-14.91553 -10.11545,-20.69474 -9.25881,-9.25881 -20.90981,-14.41863 -28.15337,-12.46814 -7.90547,2.12872 -15.59004,13.3346 -20.63798,30.09498 -4.94053,16.40372 -6.09742,25.06091 -6.07806,45.48296 0.0203,21.43956 0.97868,27.31868 8.80262,54 2.4192,8.25 4.16343,15.39297 3.87605,15.87328 -0.83497,1.39552 -9.74283,-0.0728 -14.18258,-2.33782 -5.64625,-2.8805 -7.92539,-6.9029 -15.5045,-27.36345 -3.63216,-9.80539 -7.48262,-19.55035 -8.55657,-21.65547 -8.90052,-17.44646 -26.67333,-4.68738 -28.53252,20.48346 -0.85216,11.53713 0.91807,30.25181 4.01503,42.44638 C 271.14972,413.10356 283.07904,439 289.31232,439 c 0.83044,0 2.67489,-1.38453 4.09879,-3.07673 z m 417.25105,-6.75046 c 6.52485,-5.1576 13.63835,-13.2053 17.23262,-19.49575 6.69761,-11.72172 10.11606,-28.41365 8.64061,-42.19115 -0.63903,-5.96721 -1.10089,-6.96141 -5.41194,-11.64988 -4.25756,-4.63027 -4.92619,-5.01197 -6.9151,-3.94753 -4.73036,2.53161 -7.33623,11.1558 -9.24566,30.59878 -1.18511,12.06747 -3.39174,18.43729 -7.26657,20.97617 -1.37002,0.89768 -3.53164,3.97313 -4.80358,6.83434 -3.75145,8.4388 -2.77582,22.70221 1.55285,22.70221 0.75626,0 3.5538,-1.72223 6.21677,-3.82719 z M 656,409.74459 664.5,393.5 l 8,-4.72432 c 7.48051,-4.41754 15.45348,-11.60079 20.04648,-18.06087 1.45283,-2.04341 3.45814,-3.12874 7.52945,-4.07515 7.1833,-1.66981 7.65547,-2.01143 8.88147,-6.42579 1.33219,-4.79672 1.33525,-24.37517 0.006,-35.2401 -1.39211,-11.37458 -5.28511,-27.38411 -8.33698,-34.28494 -6.71848,-15.19167 -23.58148,-24.67176 -33.3216,-18.73283 -7.3815,4.50079 -8.88232,10.83944 -10.31002,43.544 -2.71302,62.14783 -2.80038,63.26191 -6.03799,77 -5.91144,25.08386 -7.59271,37.47802 -4.70632,34.69459 0.6875,-0.66298 5.075,-8.51548 9.75,-17.45 z m -403,12.93355 c 0,-2.37702 0.73763,-6.48668 1.63918,-9.13258 3.23452,-9.4928 -0.74212,-34.85255 -7.69079,-49.04556 -4.17399,-8.52558 -19.12927,-31.98826 -26.4718,-41.53042 -2.62966,-3.41744 -5.67536,-6.19182 -7.49291,-6.82542 -2.83384,-0.98789 -3.14297,-0.86522 -4.14336,1.64415 -0.59457,1.49143 -1.29865,6.98669 -1.56463,12.21169 -0.38667,7.59621 -0.0561,11.15959 1.64967,17.7814 3.10058,12.03661 9.74001,28.5985 20.02913,49.96219 4.97503,10.32985 9.04551,19.30825 9.04551,19.95202 0,1.24053 7.46444,7.6537 10,8.59163 4.06626,1.50415 5,0.83016 5,-3.6091 z m 50.57786,-99.24148 c 1.07481,-5.72921 -0.13483,-11.05061 -4.49364,-19.76823 C 296.8379,299.17579 295,294.65443 295,293.62095 c 0,-1.03347 1.99798,-5.98347 4.43995,-11 2.44198,-5.01652 6.76932,-15.64595 9.61632,-23.62095 8.26521,-23.15244 15.46854,-36.06785 21.52831,-38.59978 6.8103,-2.84553 17.40639,-1.16255 35.45781,5.63176 5.79831,2.18241 11.53581,3.96802 12.75,3.96802 2.72748,0 2.87464,-2.69832 0.70868,-12.99492 -0.82442,-3.91913 -1.786,-11.71105 -2.13685,-17.31538 -0.35086,-5.60434 -1.01209,-10.92099 -1.4694,-11.81479 -1.39639,-2.72915 -4.45968,-2.76115 -10.3242,-0.10783 -6.10491,2.76208 -7.47012,2.50252 -5.82526,-1.10755 2.12667,-4.66753 16.92053,-12.39364 19.25712,-10.05705 0.51606,0.51606 2.08487,6.70073 3.48625,13.74371 3.08005,15.47952 6.66739,23.44628 8.91791,19.80487 0.28857,-0.46691 2.53783,-10.87136 4.99837,-23.12099 3.23796,-16.12001 5.00981,-22.86013 6.41457,-24.40106 1.06749,-1.17096 2.86667,-4.26018 3.9982,-6.86495 2.47582,-5.69933 13.94463,-17.47837 23.18222,-23.80932 6.29957,-4.31738 6.73146,-4.45342 14.00636,-4.41189 13.1203,0.0749 20.66395,5.87315 24.51571,18.84341 1.88654,6.35269 1.87517,7.98628 -0.1834,26.34579 -0.93935,8.37763 -1.44623,15.49372 -1.12641,15.81354 0.31982,0.31983 2.88583,-0.6234 5.70224,-2.09607 4.55359,-2.381 5.45158,-2.54053 8.10773,-1.44031 4.84589,2.00723 8.66444,7.2034 10.05157,13.67787 1.83268,8.55408 2.08528,8.80009 5.44035,5.29815 2.74375,-2.86386 2.93954,-3.62437 3.2864,-12.76526 0.20285,-5.34598 -0.34428,-16.41565 -1.21586,-24.59926 -1.98825,-18.66847 -2.01093,-29.82241 -0.0739,-36.34509 1.46345,-4.92798 2.05814,-5.62935 11.23921,-13.25538 1.62644,-1.35096 2.25,-2.94545 2.25,-5.75344 0,-4.69544 -1.13928,-6.22842 -7,-9.41901 -2.475,-1.3474 -5.73855,-3.266801 -7.25233,-4.265341 l -2.75234,-1.815527 -1.37455,3.366539 c -0.75601,1.851599 -1.67915,5.616539 -2.05143,8.366539 -0.95776,7.0749 -2.50857,11.5 -4.03027,11.5 -1.85897,0 -2.37659,-2.65015 -3.711,-19 -1.08115,-13.246783 -1.46148,-15.018573 -4.40051,-20.5 -1.7694,-3.3 -4.24315,-9.531828 -5.49724,-13.848507 -1.25409,-4.316678 -2.83584,-8.061738 -3.51499,-8.322354 -4.31172,-1.654561 -14.80386,8.785972 -26.10416,25.975762 -4.77084,7.257305 -9.67587,14.417586 -10.90008,15.911736 -1.22421,1.494153 -3.22321,5.769153 -4.44223,9.500003 -1.21901,3.73085 -2.57219,7.17235 -3.00705,7.64778 -0.43487,0.47543 -2.14206,-1.50179 -3.79378,-4.39382 l -3.00311,-5.25825 -9.33246,-2.38002 -9.33247,-2.38002 -1.5,2.1441 c -0.825,1.17926 -3.6375,4.49597 -6.25,7.37047 l -4.75,5.22637 -0.0163,10.40337 c -0.0213,13.58823 -1.64486,32.96451 -2.8644,34.18405 -1.13531,1.13531 -1.68359,-2.50794 -3.12496,-20.76492 -0.8639,-10.9424 -1.4835,-13.96384 -3.9401,-19.21347 -3.70859,-7.92507 -5.78539,-8.63774 -13.81635,-4.74114 -8.3793,4.0656 -17.13693,13.39714 -22.15436,23.60619 -6.09019,12.39182 -8.14068,21.62303 -8.80827,39.65444 l -0.56727,15.32176 -2.59842,-0.65216 c -5.22467,-1.31131 -7.22307,-4.59907 -9.97248,-16.40672 -1.02792,-4.41453 -2.59294,-9.13138 -3.47783,-10.48189 -1.48016,-2.259 -1.91094,-2.37167 -5.38409,-1.40814 -2.10935,0.58519 -6.95729,0.78039 -10.98653,0.44238 l -7.21133,-0.60495 -2.51933,3.30301 c -4.52531,5.93299 -8.6664,16.72727 -13.08098,34.09721 -8.33621,32.80035 -9.31261,49.90474 -3.88565,68.06773 5.88119,19.68318 6.09041,21.5 2.47595,21.5 -3.06794,0 -5.74637,-4.17406 -15.40049,-24 -5.22247,-10.725 -10.91673,-21.1875 -12.65392,-23.25 -5.22091,-6.19859 -9.91741,-4.44293 -11.51346,4.30397 -0.84037,4.60551 0.86972,17.15415 4.55791,33.44603 1.61863,7.15 3.3466,16.22936 3.83992,20.17635 1.06892,8.55223 5.44775,17.6588 8.71538,18.1252 1.59284,0.22736 2.9014,-0.92757 5.31818,-4.6938 4.19355,-6.53508 9.94932,-9.44345 19.56915,-9.88825 8.97051,-0.41477 12.03491,1.3699 16.15358,9.40762 5.97815,11.66655 7.75828,13.02486 8.92428,6.80954 z m 423.44722,-37.0299 c 2.07622,-24.40928 -0.61526,-49.74429 -6.52319,-61.40303 -3.04837,-6.01566 -13.09669,-18.9399 -14.86453,-19.11888 -2.58156,-0.26138 -5.33064,0.42819 -8.83558,2.21628 -2.86294,1.46056 -3.85643,2.67324 -4.35135,5.3114 -0.81281,4.33266 2.02156,32.2484 4.50502,44.37004 2.93336,14.31751 14.90186,37.58978 24.22003,47.09486 l 3.31102,3.37744 0.67784,-3.97067 c 0.37282,-2.18387 1.21015,-10.22872 1.86074,-17.87744 z m -36.63551,-23.97959 c 0.33196,-0.86505 -0.0794,-7.95255 -0.914,-15.75 -0.83466,-7.79744 -1.98113,-20.17822 -2.54771,-27.51283 l -1.03015,-13.33565 6.55114,-6.00294 C 696.82853,195.81258 699,193.07071 699,191.55378 c 0,-3.27845 -10.6392,-34.12022 -13.72756,-39.79455 -3.30486,-6.07212 -8.26445,-11.21219 -12.11301,-12.55381 -2.3401,-0.81576 -3.7012,-0.68064 -6.32086,0.62748 -3.08567,1.54081 -3.426,2.19736 -4.49271,8.6671 -2.98547,18.10731 -4.22919,57.91468 -2.2972,73.52623 1.31284,10.60847 3.82377,15.90394 10.01751,21.12658 2.99901,2.5288 5.3122,5.48832 6.03676,7.72348 1.60074,4.93803 4.56291,8.94889 8.28563,11.21894 3.7911,2.31174 5.21115,2.39029 6.00101,0.33194 z m -35.7779,-28.01609 c 1.00911,-4.02061 -0.18954,-12.10085 -3.17619,-21.41108 -3.49692,-10.9009 -3.47094,-14.94327 0.14785,-23.00357 5.26352,-11.72369 3.41792,-21.2282 -7.80241,-40.18103 -3.94698,-6.66705 -6.39519,-9.59567 -10.23447,-12.24279 -2.77555,-1.9137 -7.74645,-6.57252 -11.04645,-10.35293 -7.48225,-8.57152 -9.50088,-10.12227 -13.60911,-10.45481 -2.62221,-0.21225 -3.52952,0.23181 -4.56687,2.23513 -3.37422,6.51627 -0.55237,22.70971 7.66031,43.95946 2.76334,7.14994 5.89209,16.72154 6.95278,21.27021 2.34303,10.04788 7.2953,23.75098 10.67441,29.53647 3.46811,5.93788 20.2086,23.23386 22.48767,23.23386 1.16996,0 2.10436,-0.96283 2.51248,-2.58892 z M 261.81038,225.75 c 1.91426,-3.75067 3.05429,-7.33612 7.67337,-24.13301 2.43766,-8.86434 6.73622,-21.92126 9.55235,-29.01537 l 5.12024,-12.89838 -2.50449,-4.60162 c -1.37747,-2.53089 -3.30466,-7.47971 -4.28264,-10.99737 l -1.77816,-6.39575 -3.16375,3.65992 c -4.25904,4.92698 -8.73909,13.53246 -11.81081,22.68673 -2.43178,7.24711 -2.5403,8.59258 -2.66168,33 -0.14676,29.51306 0.6003,35.07304 3.85557,28.69485 z m 80.50226,-96.52099 c 6.67115,-8.15414 16.17075,-16.02457 23.92809,-19.82448 l 5.74073,-2.81207 4.53602,2.20377 c 6.41527,3.11678 8.30244,2.87902 10.03355,-1.26411 2.39576,-5.73386 1.88376,-12.10741 -1.30103,-16.195802 -1.5125,-1.941632 -4.325,-6.749107 -6.25,-10.683279 -2.18798,-4.471637 -4.19757,-7.282245 -5.36088,-7.497716 -2.7698,-0.513032 -8.84031,5.902556 -16.78337,17.737442 -7.88074,11.742015 -14.63793,25.200145 -21.42762,42.676855 -6.11027,15.72789 -6.16757,15.96308 -2.11081,8.66385 1.91554,-3.44659 5.96344,-9.2986 8.99532,-13.00446 z"
       id="path1" />
  </g>
</svg>
